<svg xmlns="http://www.w3.org/2000/svg" width="382" height="310" viewBox="0 0 382 310">
  
<defs>
  <linearGradient id="neon" x1="0%" y1="0%" x2="100%" y2="0%">
    <stop offset="0%" stop-color="#00E5FF"/>
    <stop offset="50%" stop-color="#FF00FF"/>
    <stop offset="100%" stop-color="#00E5FF"/>
  </linearGradient>
  <linearGradient id="border" x1="0%" y1="0%" x2="100%" y2="100%">
    <stop offset="0%" stop-color="#00E5FF" stop-opacity="0.5"/>
    <stop offset="100%" stop-color="#FF00FF" stop-opacity="0.5"/>
  </linearGradient>
</defs>
  <rect x="1" y="1" width="380" height="308" rx="10" fill="#0D0E17" stroke="url(#border)" stroke-width="2"/>
  <text x="191" y="34" text-anchor="middle" font-family="Segoe UI, Arial, sans-serif" font-size="17" font-weight="700" letter-spacing="4" fill="url(#neon)">TOP LANGUAGES</text>
<text x="24" y="72" font-family="Segoe UI, Arial, sans-serif" font-size="13" fill="#c8d3f0">C#</text>
<text x="358" y="72" text-anchor="end" font-family="Segoe UI, Arial, sans-serif" font-size="13" font-weight="600" fill="#00E5FF">48%</text>
<rect x="24" y="80" width="334" height="7" rx="3.5" fill="#1E2440"/>
<rect x="24" y="80" width="160" height="7" rx="3.5" fill="#FF00FF"/>
<text x="24" y="102" font-family="Segoe UI, Arial, sans-serif" font-size="13" fill="#c8d3f0">C++</text>
<text x="358" y="102" text-anchor="end" font-family="Segoe UI, Arial, sans-serif" font-size="13" font-weight="600" fill="#00E5FF">22.1%</text>
<rect x="24" y="110" width="334" height="7" rx="3.5" fill="#1E2440"/>
<rect x="24" y="110" width="74" height="7" rx="3.5" fill="#00E5FF"/>
<text x="24" y="132" font-family="Segoe UI, Arial, sans-serif" font-size="13" fill="#c8d3f0">Rust</text>
<text x="358" y="132" text-anchor="end" font-family="Segoe UI, Arial, sans-serif" font-size="13" font-weight="600" fill="#00E5FF">12.6%</text>
<rect x="24" y="140" width="334" height="7" rx="3.5" fill="#1E2440"/>
<rect x="24" y="140" width="42" height="7" rx="3.5" fill="#FFA500"/>
<text x="24" y="162" font-family="Segoe UI, Arial, sans-serif" font-size="13" fill="#c8d3f0">ShaderLab</text>
<text x="358" y="162" text-anchor="end" font-family="Segoe UI, Arial, sans-serif" font-size="13" font-weight="600" fill="#00E5FF">7.8%</text>
<rect x="24" y="170" width="334" height="7" rx="3.5" fill="#1E2440"/>
<rect x="24" y="170" width="26" height="7" rx="3.5" fill="#80CBC4"/>
<text x="24" y="192" font-family="Segoe UI, Arial, sans-serif" font-size="13" fill="#c8d3f0">JavaScript</text>
<text x="358" y="192" text-anchor="end" font-family="Segoe UI, Arial, sans-serif" font-size="13" font-weight="600" fill="#00E5FF">1.7%</text>
<rect x="24" y="200" width="334" height="7" rx="3.5" fill="#1E2440"/>
<rect x="24" y="200" width="6" height="7" rx="3.5" fill="#FFD700"/>
<text x="24" y="222" font-family="Segoe UI, Arial, sans-serif" font-size="13" fill="#c8d3f0">HLSL</text>
<text x="358" y="222" text-anchor="end" font-family="Segoe UI, Arial, sans-serif" font-size="13" font-weight="600" fill="#00E5FF">1.6%</text>
<rect x="24" y="230" width="334" height="7" rx="3.5" fill="#1E2440"/>
<rect x="24" y="230" width="5" height="7" rx="3.5" fill="#90CAF9"/>
<text x="24" y="252" font-family="Segoe UI, Arial, sans-serif" font-size="13" fill="#c8d3f0">C</text>
<text x="358" y="252" text-anchor="end" font-family="Segoe UI, Arial, sans-serif" font-size="13" font-weight="600" fill="#00E5FF">1.5%</text>
<rect x="24" y="260" width="334" height="7" rx="3.5" fill="#1E2440"/>
<rect x="24" y="260" width="5" height="7" rx="3.5" fill="#3AA6DD"/>
<text x="24" y="282" font-family="Segoe UI, Arial, sans-serif" font-size="13" fill="#c8d3f0">HTML</text>
<text x="358" y="282" text-anchor="end" font-family="Segoe UI, Arial, sans-serif" font-size="13" font-weight="600" fill="#00E5FF">1.4%</text>
<rect x="24" y="290" width="334" height="7" rx="3.5" fill="#1E2440"/>
<rect x="24" y="290" width="5" height="7" rx="3.5" fill="#FF6B6B"/>
</svg>